<svg width="157" height="28" viewBox="0 0 157 28" fill="none" xmlns="http://www.w3.org/2000/svg">
<path d="M17.9999 22.2539L17.1738 27H3.90228L4.72845 22.2539H17.9999ZM10.5117 1.40625L6.06439 27H0.0526733L4.48236 1.40625H10.5117ZM18.1406 11.5664L17.3495 16.1543H5.78314L6.59174 11.5664H18.1406ZM21.6562 1.40625L20.83 6.16992H7.5058L8.34955 1.40625H21.6562ZM30.1464 20.7246L38.2675 1.40625H45.1757L32.7831 27H28.3007L30.1464 20.7246ZM28.4413 1.40625L30.5859 21.2695L30.5156 27H26.2265L21.9023 1.40625H28.4413ZM55.371 7.08398L45.9492 27H39.287L52.8574 1.40625H57.1113L55.371 7.08398ZM56.9882 27L54.3867 6.46875L54.5273 1.40625H58.5351L63.2636 27H56.9882ZM58.3593 17.4551L57.5156 22.2188H44.7363L45.58 17.4551H58.3593ZM69.5917 1.40625L79.0663 1.42383C80.6249 1.44727 82.0605 1.72852 83.373 2.26758C84.6855 2.80664 85.7167 3.63281 86.4667 4.74609C87.2167 5.84766 87.5331 7.25977 87.416 8.98242C87.3105 10.4004 86.9941 11.5957 86.4667 12.5684C85.9394 13.5293 85.2245 14.3496 84.3222 15.0293C83.4199 15.709 82.3593 16.3125 81.1406 16.8398L78.9609 17.9648H70.4531L71.2617 13.2012L77.0449 13.2363C77.8183 13.2246 78.5038 13.0723 79.1015 12.7793C79.7109 12.4863 80.2089 12.0703 80.5956 11.5312C80.9824 10.9922 81.2285 10.3359 81.3339 9.5625C81.4277 8.92969 81.4042 8.36719 81.2636 7.875C81.123 7.37109 80.8535 6.97266 80.455 6.67969C80.0566 6.38672 79.5292 6.22266 78.873 6.1875L74.7949 6.16992L71.1738 27H65.162L69.5917 1.40625ZM78.8906 27L75.3574 15.6797L81.457 15.6445L85.3066 26.7012V27H78.8906ZM105.855 1.40625H111.867L109.019 18.1055C108.738 20.0625 108.1 21.7383 107.103 23.1328C106.119 24.5273 104.848 25.5879 103.289 26.3145C101.73 27.041 99.9667 27.3926 97.998 27.3691C96.1699 27.334 94.5703 26.9414 93.1992 26.1914C91.8398 25.4414 90.8203 24.3809 90.1406 23.0098C89.4609 21.6387 89.2324 20.0098 89.455 18.123L92.3027 1.40625H98.332L95.5019 18.1406C95.4081 18.9141 95.414 19.6348 95.5195 20.3027C95.6367 20.9707 95.9179 21.5156 96.3632 21.9375C96.8085 22.3594 97.4765 22.582 98.3671 22.6055C99.3163 22.6406 100.107 22.4648 100.74 22.0781C101.385 21.6914 101.889 21.1523 102.252 20.4609C102.627 19.7695 102.879 18.9902 103.008 18.123L105.855 1.40625ZM133.857 13.3242L132.205 23.8535C131.42 24.7676 130.435 25.4824 129.252 25.998C128.068 26.502 126.826 26.8535 125.525 27.0527C124.236 27.2637 123.023 27.3574 121.887 27.334C120.105 27.3105 118.588 26.959 117.334 26.2793C116.092 25.5996 115.102 24.6797 114.363 23.5195C113.625 22.3594 113.127 21.041 112.869 19.5645C112.611 18.0879 112.582 16.541 112.781 14.9238L112.975 13.5176C113.197 11.8535 113.631 10.2715 114.275 8.77148C114.932 7.25977 115.781 5.91797 116.824 4.74609C117.867 3.57422 119.103 2.6543 120.533 1.98633C121.975 1.31836 123.603 1.00195 125.42 1.03711C127.307 1.06055 128.906 1.41797 130.219 2.10938C131.543 2.78906 132.568 3.77344 133.295 5.0625C134.021 6.35156 134.443 7.92773 134.56 9.79102L128.812 9.77344C128.754 9 128.607 8.32031 128.373 7.73438C128.15 7.13672 127.793 6.66797 127.301 6.32812C126.809 5.98828 126.135 5.80078 125.279 5.76562C124.248 5.71875 123.369 5.93555 122.643 6.41602C121.916 6.88477 121.307 7.51172 120.814 8.29688C120.334 9.08203 119.953 9.93164 119.672 10.8457C119.402 11.7598 119.209 12.6328 119.092 13.4648L118.898 14.9414C118.805 15.7266 118.746 16.5586 118.723 17.4375C118.711 18.3164 118.81 19.1426 119.021 19.916C119.232 20.6895 119.613 21.3223 120.164 21.8145C120.727 22.3066 121.529 22.5645 122.572 22.5879C123.029 22.5996 123.469 22.5703 123.891 22.5C124.324 22.4297 124.74 22.3184 125.139 22.166C125.549 22.002 125.941 21.7969 126.316 21.5508L127.107 17.5605H122.941L123.68 13.3242H133.857ZM148.939 20.0742C149.045 19.5234 149.004 19.0547 148.816 18.668C148.641 18.2812 148.371 17.9531 148.008 17.6836C147.656 17.4141 147.252 17.1855 146.795 16.998C146.35 16.7988 145.916 16.6172 145.494 16.4531C144.58 16.0898 143.678 15.6797 142.787 15.2227C141.896 14.7539 141.088 14.2031 140.361 13.5703C139.635 12.9375 139.066 12.1992 138.656 11.3555C138.258 10.5117 138.088 9.52148 138.146 8.38477C138.228 7.08398 138.598 5.96484 139.254 5.02734C139.91 4.08984 140.748 3.32812 141.768 2.74219C142.799 2.14453 143.906 1.71094 145.09 1.44141C146.285 1.16016 147.451 1.03125 148.588 1.05469C150.205 1.07812 151.646 1.40625 152.912 2.03906C154.189 2.67188 155.191 3.58008 155.918 4.76367C156.644 5.93555 156.996 7.35352 156.973 9.01758H151.014C151.037 8.36133 150.949 7.79297 150.75 7.3125C150.562 6.82031 150.252 6.43945 149.818 6.16992C149.385 5.88867 148.822 5.74219 148.131 5.73047C147.557 5.71875 146.982 5.8125 146.408 6.01172C145.834 6.19922 145.336 6.49219 144.914 6.89062C144.492 7.28906 144.223 7.80469 144.105 8.4375C144.023 8.91797 144.1 9.33984 144.334 9.70312C144.568 10.0547 144.891 10.3594 145.301 10.6172C145.711 10.8633 146.139 11.0742 146.584 11.25C147.041 11.4258 147.439 11.5781 147.779 11.707C148.74 12.0703 149.66 12.498 150.539 12.9902C151.43 13.4707 152.215 14.0391 152.894 14.6953C153.586 15.3516 154.113 16.1191 154.477 16.998C154.852 17.8652 155.004 18.873 154.934 20.0215C154.84 21.3457 154.488 22.4766 153.879 23.4141C153.269 24.3516 152.484 25.1133 151.523 25.6992C150.562 26.2852 149.508 26.7129 148.359 26.9824C147.211 27.252 146.045 27.3809 144.861 27.3691C143.537 27.3457 142.301 27.1465 141.152 26.7715C140.004 26.3848 139.002 25.8281 138.146 25.1016C137.291 24.3633 136.629 23.4609 136.16 22.3945C135.691 21.3164 135.469 20.0801 135.492 18.6855L141.521 18.7031C141.486 19.3594 141.527 19.9395 141.644 20.4434C141.773 20.9355 141.984 21.3516 142.277 21.6914C142.582 22.0195 142.975 22.2715 143.455 22.4473C143.935 22.6113 144.516 22.6934 145.195 22.6934C145.769 22.6934 146.32 22.6055 146.848 22.4297C147.387 22.2422 147.844 21.9551 148.219 21.5684C148.594 21.1816 148.834 20.6836 148.939 20.0742Z" fill="black"/>
</svg>
